<svg xmlns="http://www.w3.org/2000/svg" width="30" height="30" viewBox="0 0 40 40">
    <g>
        <g>
            <path style="fill:none" d="M0 0h30v30H0z"/>
        </g>
        <path d="M24.563 12.563a12 12 0 1 1-12-12 12 12 0 0 1 12 12zm-13.389 6.353 8.9-8.9a.774.774 0 0 0 0-1.095l-1.091-1.098a.774.774 0 0 0-1.095 0l-7.261 7.261-3.39-3.39a.774.774 0 0 0-1.095 0l-1.095 1.095a.774.774 0 0 0 0 1.095l5.032 5.032a.774.774 0 0 0 1.095 0z" transform="translate(7.438 7.438)" style="fill:current"/>
    </g>
</svg>
