<svg xmlns="http://www.w3.org/2000/svg" width="32" height="32" viewBox="0 0 32 32">
    <g data-name="그룹 237">
        <g data-name="그룹 227">
            <path data-name="사각형 477" style="fill:none" d="M0 0h32v32H0z"/>
            <path data-name="Icon ionic-md-heart-empty" d="M16.425 4.5a5.324 5.324 0 0 0-4.05 1.9 5.324 5.324 0 0 0-4.05-1.9 4.894 4.894 0 0 0-4.95 4.98c0 3.44 3.059 6.2 7.693 10.458l1.307 1.177 1.307-1.177c4.634-4.258 7.693-7.018 7.693-10.458a4.894 4.894 0 0 0-4.95-4.98zm-3.5 14.249-.182.169-.372.337-.371-.338-.182-.169a55 55 0 0 1-5.306-5.278 6.349 6.349 0 0 1-1.748-3.99 3.6 3.6 0 0 1 1.025-2.566 3.521 3.521 0 0 1 2.536-1.03 3.968 3.968 0 0 1 2.99 1.406l1.06 1.259 1.06-1.259a3.954 3.954 0 0 1 2.99-1.406 3.539 3.539 0 0 1 2.54 1.03A3.606 3.606 0 0 1 19.99 9.48a6.382 6.382 0 0 1-1.748 3.989 55.109 55.109 0 0 1-5.313 5.28z" transform="translate(3.625 3.5)" style="fill:red"/>
        </g>
    </g>
</svg>
